#!OML:ASF Y:\EmotionMaleHayes\Project 1\Capture day 1\Session 1\Male1.ASF
:FULLY-SPECIFIED
:DEGREES
241
root 15.2949 16.6622 -1.17013 -300.773 77.0359 -313.467
lowerback 18.8863 10.8541 4.23068
upperback 5.73933 15.1238 -4.63887
thorax -1.64569 7.84461 -10.0231
lowerneck -17.4842 -8.97396 0.593861
upperneck 28.4774 -13.178 3.06941
head 12.5258 -5.05499 -0.9508
rclavicle 1.20066e-013 -7.95139e-014
rhumerus -24.5337 25.3064 -83.1443
rradius 78.1818
rwrist -20.3418
rhand -21.3941 -27.5062
rfingers 7.12502
rthumb 4.99384 -57.4274
lclavicle 1.20066e-013 -7.95139e-014
lhumerus -75.4393 3.04215 44.3483
lradius 27.3395
lwrist 11.2291
lhand -39.7145 -27.3116
lfingers 7.12502
lthumb -12.6925 2.28267
rfemur 9.92455 -2.40234 27.4228
rtibia 13.1253
rfoot -15.6615 10.1595
rtoes 17.5569
lfemur -77.3011 28.4264 -16.49
ltibia 74.1032
lfoot 361.311 -0.0959329
ltoes -19.2081
242
root 15.6248 16.7178 -1.16333 -299.932 77.9181 -313.015
lowerback 18.2868 11.1341 4.5128
upperback 5.70803 15.533 -4.48674
thorax -1.26624 8.06466 -9.90865
lowerneck -17.4889 -9.31124 0.370379
upperneck 28.36 -13.6101 3.15834
head 12.5113 -5.26326 -0.950926
rclavicle -4.45278e-014 2.38542e-014
rhumerus -25.516 25.0379 -82.8092
rradius 80.3156
rwrist -20.9131
rhand -21.2058 -27.0866
rfingers 7.12502
rthumb 5.17562 -57.0034
lclavicle -4.45278e-014 2.38542e-014
lhumerus -76.8887 1.56569 44.5216
lradius 27.3146
lwrist 10.8744
lhand -40.2883 -28.3859
lfingers 7.12502
lthumb -13.2457 1.17325
rfemur 10.3301 -1.59108 27.912
rtibia 14.8272
rfoot -13.4986 10.8851
rtoes 17.6276
lfemur -78.3467 27.4689 -21.0285
ltibia 69.5223
lfoot 364.419 -2.50118
ltoes -16.8662
243
root 15.9632 16.7612 -1.1624 -298.655 78.8629 -311.797
lowerback 17.9648 11.2971 5.02652
upperback 5.70584 15.8361 -4.34644
thorax -0.948373 8.23769 -9.96508
lowerneck -17.437 -9.73333 -0.223882
upperneck 28.5098 -14.2268 3.83409
head 12.6892 -5.48575 -0.714089
rclavicle -4.05521e-014 -1.11319e-014
rhumerus -26.8047 24.5898 -82.7913
rradius 82.4083
rwrist -20.2904
rhand -20.739 -26.9009
rfingers 7.12502
rthumb 5.62637 -56.8062
lclavicle -4.05521e-014 -1.11319e-014
lhumerus -78.4103 -0.0808454 45.0103
lradius 27.4435
lwrist 10.9624
lhand -40.9412 -29.1926
lfingers 7.12502
lthumb -13.8749 0.324585
rfemur 10.8719 -1.10255 28.3668
rtibia 17.5223
rfoot -12.2611 10.2798
rtoes 16.9436
lfemur -78.4816 26.4955 -25.4399
ltibia 64.8621
lfoot 367.265 -4.63621
ltoes -13.0145
244
root 16.3072 16.7929 -1.16941 -297.686 79.7365 -310.556
lowerback 17.8614 11.4279 5.50386
upperback 5.82607 16.0998 -4.08931
thorax -0.659906 8.39205 -9.90914
lowerneck -17.4077 -10.0298 -0.587691
upperneck 28.6008 -14.6063 4.07454
head 12.7855 -5.64698 -0.633859
rclavicle -4.85035e-014 -1.90833e-014
rhumerus -28.1637 24.4023 -82.8593
rradius 84.2213
rwrist -19.0584
rhand -20.722 -26.0492
rfingers 7.12502
rthumb 5.64275 -55.9541
lclavicle -4.85035e-014 -1.90833e-014
lhumerus -79.9057 -1.44929 45.5653
lradius 27.5015
lwrist 10.8416
lhand -41.8669 -29.8559
lfingers 7.12502
lthumb -14.7669 -0.401906
rfemur 11.6754 -0.790151 28.6922
rtibia 20.816
rfoot -12.3963 7.48445
rtoes 21.7635
lfemur -77.6005 25.629 -29.4011
ltibia 60.3403
lfoot 369.725 -5.99819
ltoes -7.94795
245
root 16.6472 16.8125 -1.18423 -296.234 80.748 -308.595
lowerback 17.8766 11.4538 6.07418
upperback 6.04209 16.2485 -3.65054
thorax -0.38146 8.48836 -9.71392
lowerneck -17.3796 -10.2586 -0.758981
upperneck 28.6514 -14.8023 3.83263
head 12.7946 -5.78165 -0.728547
rclavicle 3.18055e-015 -5.40694e-014
rhumerus -29.241 24.682 -82.679
rradius 85.5913
rwrist -18.0215
rhand -22.073 -23.9695
rfingers 7.12502
rthumb 4.33831 -53.905
lclavicle 3.18055e-015 -5.40694e-014
lhumerus -81.3213 -2.41409 45.929
lradius 27.4131
lwrist 10.3837
lhand -42.8023 -30.6516
lfingers 7.12502
lthumb -15.668 -1.26601
rfemur 12.6778 -0.619962 29.0871
rtibia 24.2898
rfoot -13.9876 3.54789
rtoes 20.1631
lfemur -75.9787 24.6541 -32.8051
ltibia 56.0243
lfoot 372.348 -6.07718
ltoes -0.229865
246
root 16.9827 16.816 -1.20398 -293.467 81.8043 -304.957
lowerback 18.1859 11.365 6.76604
upperback 6.41447 16.291 -3.07951
thorax -0.110578 8.54185 -9.48126
lowerneck -17.7515 -10.4908 -1.04107
upperneck 28.8648 -14.9611 3.46701
head 12.9486 -5.91123 -0.874429
rclavicle -5.40694e-014 -9.54166e-015
rhumerus -30.387 24.488 -82.7679
rradius 86.7627
rwrist -16.7713
rhand -21.8053 -23.8764
rfingers 7.12502
rthumb 4.59673 -53.8066
lclavicle -5.40694e-014 -9.54166e-015
lhumerus -82.6558 -3.16568 46.3207
lradius 27.4397
lwrist 10.3358
lhand -43.2514 -30.9946
lfingers 7.12502
lthumb -16.1005 -1.64348
rfemur 13.9918 -0.99602 29.2296
rtibia 27.9082
rfoot -14.9815 -0.00545944
rtoes 20.4107
lfemur -73.3205 23.4305 -35.0921
ltibia 52.202
lfoot 374.385 -5.19119
ltoes 8.20326
247
root 17.302 16.7795 -1.22471 -297.21 82.5729 -308.152
lowerback 18.4212 11.6191 7.35094
upperback 6.57055 16.7471 -2.5484
thorax 0.0324636 8.77909 -9.28319
lowerneck -18.0183 -10.6592 -1.28054
upperneck 29.0735 -15.0326 3.10845
head 13.0744 -5.99934 -1.0043
rclavicle -3.26007e-014 1.43125e-014
rhumerus -31.4761 24.2448 -83.0799
rradius 87.499
rwrist -15.9702
rhand -21.7496 -23.6648
rfingers 7.12502
rthumb 4.65059 -53.5937
lclavicle -3.26007e-014 1.43125e-014
lhumerus -83.8475 -3.42332 45.4517
lradius 27.3093
lwrist 9.53337
lhand -43.3236 -31.3448
lfingers 7.12502
lthumb -16.17 -1.99929
rfemur 14.8019 -0.919083 29.3413
rtibia 32.101
rfoot -15.6918 -2.32749
rtoes 19.8136
lfemur -70.8685 22.5817 -35.7425
ltibia 49.3378
lfoot 374.172 -1.7719
ltoes 14.0617
248
root 17.6099 16.6999 -1.23286 -308.846 83.2587 -319.5
lowerback 18.5299 12.0951 7.91057
upperback 6.4479 17.4697 -1.95766
thorax -0.0372092 9.1116 -9.0432
lowerneck -16.8894 -10.8833 -1.66238
upperneck 28.2107 -15.2469 3.37805
head 12.5583 -6.17903 -0.794955
rclavicle -9.14409e-014 5.08889e-014
rhumerus -32.6101 24.1757 -83.7128
rradius 87.7898
rwrist -15.4721
rhand -21.5653 -23.939
rfingers 7.12502
rthumb 4.82848 -53.8639
lclavicle -9.14409e-014 5.08889e-014
lhumerus -84.8485 -3.206 43.1073
lradius 26.7859
lwrist 7.74241
lhand -43.3083 -32.068
lfingers 7.12502
lthumb -16.1552 -2.72125
rfemur 15.3698 0.0471932 30.1684
rtibia 36.3485
rfoot -16.0341 -3.53442
rtoes 19.1282
lfemur -69.1052 22.0581 -35.1129
ltibia 47.3096
lfoot 374.103 -0.695863
ltoes 7.95111
249
root 17.9146 16.6026 -1.26368 -321.262 84.2604 -331.239
lowerback 18.9087 12.1392 9.13806
upperback 6.43775 17.7878 -1.23426
thorax -0.0461805 9.26789 -8.99939
lowerneck -16.2889 -10.9892 -1.94199
upperneck 28.0458 -15.2583 3.29598
head 12.387 -6.24608 -0.743493
rclavicle 1.69365e-013 -3.18055e-014
rhumerus -33.6474 23.9337 -84.5346
rradius 87.8056
rwrist -14.5459
rhand -20.9662 -25.3288
rfingers 7.12502
rthumb 5.40701 -55.2398
lclavicle 1.69365e-013 -3.18055e-014
lhumerus -85.6217 -2.87986 40.8415
lradius 26.0847
lwrist 6.68281
lhand -43.2191 -32.4052
lfingers 7.12502
lthumb -16.0693 -3.05149
rfemur 16.3188 0.778995 31.1782
rtibia 40.2641
rfoot -15.8301 -3.65258
rtoes 21.8971
lfemur -66.3942 20.1755 -32.6775
ltibia 46.0616
lfoot 374.006 -0.701609
ltoes 2.6291
250
root 18.2628 16.5743 -1.37824 -311.996 86.9599 -318.625
lowerback 21.5034 10.3953 12.2172
upperback 7.23586 16.4525 -0.440306
thorax -0.118968 8.7302 -10.0577
lowerneck -16.4396 -11.0062 -2.00167
upperneck 28.362 -15.1755 2.96155
head 12.5127 -6.23682 -0.858504
rclavicle -1.08934e-013 6.04305e-014
rhumerus -34.446 23.7776 -85.3916
rradius 87.1693
rwrist -14.8341
rhand -21.6135 -25.2795
rfingers 7.12502
rthumb 4.78198 -55.2055
lclavicle -1.08934e-013 6.04305e-014
lhumerus -86.215 -2.42017 38.6822
lradius 25.2942
lwrist 6.18747
lhand -43.439 -32.2386
lfingers 7.12502
lthumb -16.2811 -2.90215
rfemur 20.2034 -1.63276 30.4978
rtibia 43.3189
rfoot -15.1381 -2.92188
rtoes 25.6704
lfemur -59.0818 14.9725 -29.5249
ltibia 43.6428
lfoot 374.52 -0.534194
ltoes 1.7827
251
root 18.5794 16.4609 -1.42573 -345.594 87.8755 -350.713
lowerback 22.4655 9.99322 13.8408
upperback 7.50212 16.4512 0.377461
thorax -0.093214 8.77186 -10.1658
lowerneck -16.7775 -10.8913 -1.6435
upperneck 28.8201 -14.8814 2.13223
head 12.6408 -6.14904 -1.19523
rclavicle -1.15295e-013 3.97569e-014
rhumerus -35.0075 23.3866 -86.1696
rradius 86.3923
rwrist -15.5252
rhand -21.3087 -26.0744
rfingers 7.12502
rthumb 5.07625 -55.9936
lclavicle -1.15295e-013 3.97569e-014
lhumerus -86.6913 -1.71437 36.4546
lradius 24.2292
lwrist 5.59227
lhand -44.1919 -31.9982
lfingers 7.12502
lthumb -17.0059 -2.72266
rfemur 21.8295 -1.59713 31.0595
rtibia 47.5914
rfoot -14.4948 -3.04821
rtoes 24.5689
lfemur -55.4198 12.0449 -26.1522
ltibia 43.071
lfoot 374.836 -0.211093
ltoes 2.21942
252
root 18.8914 16.3215 -1.46761 -378.695 87.3857 -382.712
lowerback 23.1737 9.81485 14.8464
upperback 7.63716 16.5893 1.02286
thorax -0.173192 8.85106 -10.1254
lowerneck -16.8295 -10.8586 -1.99014
upperneck 28.7012 -14.801 2.32114
head 12.6523 -6.1329 -1.06397
rclavicle 6.2816e-014 7.15625e-014
rhumerus -35.6345 22.689 -87.1859
rradius 85.3015
rwrist -15.8713
rhand -21.2198 -26.6293
rfingers 7.12502
rthumb 5.16213 -56.5464
lclavicle 6.2816e-014 7.15625e-014
lhumerus -87.0462 -0.868388 33.9084
lradius 22.9115
lwrist 4.67427
lhand -44.8816 -31.9867
lfingers 7.12502
lthumb -17.6698 -2.76958
rfemur 22.8876 -1.14554 31.2005
rtibia 52.0934
rfoot -14.2163 -3.91407
rtoes 21.9408
lfemur -52.6076 9.51409 -23.539
ltibia 43.0213
lfoot 375.447 -0.121933
ltoes 2.32054
253
root 19.2117 16.1652 -1.51299 -388.486 86.1014 -391.856
lowerback 23.3914 9.89501 15.3755
upperback 7.70631 16.8715 1.47032
thorax -0.119672 8.9986 -9.96705
lowerneck -17.0386 -10.733 -2.05588
upperneck 28.9181 -14.5485 2.09492
head 12.7605 -6.04488 -1.11449
rclavicle -2.78299e-014 -1.74931e-014
rhumerus -36.2282 21.9412 -88.2289
rradius 83.9484
rwrist -15.7478
rhand -21.7303 -26.8758
rfingers 7.12502
rthumb 4.6692 -56.8043
lclavicle -2.78299e-014 -1.74931e-014
lhumerus -87.4722 0.219494 30.631
lradius 21.65
lwrist 2.73105
lhand -45.3547 -32.2607
lfingers 7.12502
lthumb -18.1249 -3.08521
rfemur 23.5018 -0.0894659 30.8021
rtibia 56.5467
rfoot -14.1971 -5.0633
rtoes 22.2506
lfemur -50.3986 7.64824 -21.6421
ltibia 43.3505
lfoot 376.26 0.069858
ltoes 5.63814
254
root 19.5252 16.0112 -1.56064 -388.821 84.6559 -391.599
lowerback 23.5858 10.0188 15.4996
upperback 7.85503 17.1064 1.83028
thorax -0.0699916 9.1217 -9.6907
lowerneck -17.1307 -10.5678 -2.17393
upperneck 28.5505 -14.3306 2.2093
head 12.6464 -5.97402 -1.0167
rclavicle 7.63333e-014 1.90833e-014
rhumerus -36.5366 21.2091 -89.0312
rradius 82.4532
rwrist -15.331
rhand -21.9556 -27.268
rfingers 7.12502
rthumb 4.45165 -57.2012
lclavicle 7.63333e-014 1.90833e-014
lhumerus -87.9587 1.53221 27.3473
lradius 20.1849
lwrist 0.131172
lhand -45.8529 -32.8156
lfingers 7.12502
lthumb -18.6042 -3.68525
rfemur 23.9683 1.22998 29.8399
rtibia 61.0461
rfoot -14.1111 -6.38492
rtoes 25.2813
lfemur -48.1256 6.51149 -20.4787
ltibia 43.6812
lfoot 377.192 -0.010161
ltoes 24.3142
